<?xml version="1.0" standalone="no"?>
<!DOCTYPE svg PUBLIC "-//W3C//DTD SVG 20010904//EN"
 "http://www.w3.org/TR/2001/REC-SVG-20010904/DTD/svg10.dtd">
<svg version="1.0" xmlns="http://www.w3.org/2000/svg"
 width="564.000000pt" height="564.000000pt" viewBox="0 0 564.000000 564.000000"
 preserveAspectRatio="xMidYMid meet">
<metadata>
Created by potrace 1.16, written by Peter Selinger 2001-2019
</metadata>
<g transform="translate(0.000000,564.000000) scale(0.100000,-0.100000)"
fill="#000000" stroke="none">
<path d="M0 2820 l0 -2820 2820 0 2820 0 0 2820 0 2820 -2820 0 -2820 0 0
-2820z m3036 1085 c116 -21 179 -39 267 -80 40 -18 97 -41 127 -51 99 -31 90
-48 -9 -18 -60 17 -80 13 -29 -6 18 -7 36 -13 40 -14 3 -1 10 -4 14 -8 11 -12
-45 -10 -89 3 -21 5 -46 7 -57 4 -14 -5 1 -16 63 -49 45 -23 110 -52 144 -65
34 -13 64 -29 67 -37 3 -8 12 -14 20 -14 46 0 20 -55 -32 -69 -22 -6 -41 -19
-47 -32 -6 -12 -26 -27 -46 -34 -21 -6 -52 -24 -70 -38 l-33 -26 -59 50 c-73
60 -160 109 -252 140 -61 21 -89 24 -215 24 -126 0 -154 -3 -215 -24 -286 -96
-476 -336 -500 -631 -8 -102 5 -191 44 -305 25 -72 75 -165 88 -165 9 0 400
262 680 457 190 132 297 201 308 197 8 -4 23 0 33 7 14 11 13 9 -2 -9 -11 -12
-28 -22 -38 -22 -12 0 -17 -4 -12 -12 5 -8 2 -9 -9 -5 -10 4 -16 2 -14 -4 4
-19 -298 -228 -676 -469 -65 -41 -200 -129 -300 -194 -180 -118 -334 -206
-362 -206 -8 0 -36 -13 -62 -28 -57 -33 -112 -54 -124 -46 -12 7 -11 41 1 49
8 5 8 11 1 19 -7 9 1 31 30 77 67 109 71 130 79 459 8 305 9 319 60 472 86
259 298 498 540 610 115 53 130 58 251 83 136 28 269 31 395 10z m750 -960
c42 -276 -62 -564 -277 -770 -138 -131 -270 -203 -453 -245 -83 -19 -115 -22
-234 -18 -146 6 -246 29 -357 86 -60 30 -156 94 -174 116 -24 28 -3 30 38 3
69 -46 235 -107 286 -106 17 0 -66 36 -127 56 -10 3 -18 9 -18 14 0 5 -7 9
-15 9 -8 0 -15 5 -15 10 0 6 -7 10 -15 10 -8 0 -15 5 -15 11 0 6 -7 8 -16 5
-8 -3 -12 -2 -9 4 3 6 -3 10 -15 10 -12 0 -18 5 -15 10 3 6 0 10 -7 10 -13 0
41 49 55 50 4 0 21 10 37 22 l29 21 83 -31 c128 -48 165 -56 283 -56 85 0 128
5 188 22 208 59 364 189 457 377 58 120 74 190 75 332 l0 123 70 50 70 51 6
-73 c4 -40 8 -126 9 -191 2 -87 6 -114 13 -101 14 25 21 256 9 326 -5 32 -6
60 -3 63 10 11 42 -99 57 -200z"/>
</g>
</svg>
